<svg id="Слой_1" data-name="Слой 1" xmlns="http://www.w3.org/2000/svg" xmlns:xlink="http://www.w3.org/1999/xlink" viewBox="0 0 16 16.01"><defs><style>.cls-1{fill:none;}.cls-2{clip-path:url(#clip-path);}.cls-3{fill:#231f20;}</style><clipPath id="clip-path" transform="translate(0 0)"><rect class="cls-1" width="16" height="16.01"/></clipPath></defs><title>icon-instagram-m</title><g class="cls-2"><path class="cls-3" d="M11.83,1A3.14,3.14,0,0,1,15,4.18v7.66A3.13,3.13,0,0,1,11.83,15H4.17A3.14,3.14,0,0,1,1,11.83V4.18A3.14,3.14,0,0,1,4.17,1h7.65m0-1H4.17A4.19,4.19,0,0,0,0,4.18v7.66A4.19,4.19,0,0,0,4.17,16h7.65A4.19,4.19,0,0,0,16,11.83V4.18A4.19,4.19,0,0,0,11.83,0" transform="translate(0 0)"/><path class="cls-3" d="M8,4.93A3.08,3.08,0,1,1,4.92,8,3.09,3.09,0,0,1,8,4.93m0-1A4.13,4.13,0,1,0,12.12,8,4.13,4.13,0,0,0,8,3.88" transform="translate(0 0)"/><path class="cls-3" d="M12.27,2.81a0.93,0.93,0,1,1-.93.93,0.93,0.93,0,0,1,.93-0.93" transform="translate(0 0)"/></g></svg>