<svg id="Слой_1" data-name="Слой 1" xmlns="http://www.w3.org/2000/svg" xmlns:xlink="http://www.w3.org/1999/xlink" viewBox="0 0 19.96 19.93"><defs><style>.cls-1{fill:none;}.cls-2{clip-path:url(#clip-path);}</style><clipPath id="clip-path" transform="translate(0 0)"><rect class="cls-1" width="19.95" height="19.92"/></clipPath></defs><title>icon-phone</title><g class="cls-2"><path d="M17.91,9.41H9.41v1.2h8.5l-2.1,2.1,0.9,0.9,3.1-3.1a0.74,0.74,0,0,0,0-.9l-3.1-3.1-0.9.9Z" transform="translate(0 0)"/><path d="M8.11,19.41v-6.2a0.65,0.65,0,0,0-.6-0.6H3.11a1.22,1.22,0,0,0,1.2,1.2h2.5v5H3.11a1.79,1.79,0,0,1-1.9-1.7v-14a1.77,1.77,0,0,1,1.7-1.8h3.9v5H4.41a1.22,1.22,0,0,0-1.2,1.2h4.4a0.65,0.65,0,0,0,.6-0.6V0.61A0.86,0.86,0,0,0,7.51,0H3.11A3,3,0,0,0,0,2.91v13.9a2.89,2.89,0,0,0,2.9,3.1h4.6a0.5,0.5,0,0,0,.6-0.5" transform="translate(0 0)"/></g></svg>