<svg id="Слой_1" data-name="Слой 1" xmlns="http://www.w3.org/2000/svg" xmlns:xlink="http://www.w3.org/1999/xlink" viewBox="0 0 22 12"><defs><style>.cls-1{fill:none;}.cls-2{clip-path:url(#clip-path);}</style><clipPath id="clip-path" transform="translate(0 0)"><rect class="cls-1" width="22" height="12"/></clipPath></defs><title>icon-vk-mobile</title><g class="cls-2"><path d="M17.55,12A2.89,2.89,0,0,1,16,11.52a7.26,7.26,0,0,1-1.31-1.17,3.52,3.52,0,0,0-1.06-.9,1.63,1.63,0,0,0-.35,1.19,1.32,1.32,0,0,1-.34.92,1.63,1.63,0,0,1-.89.38H10.67a8.14,8.14,0,0,1-5.45-2.3C2.53,7.1.21,2.2,0.11,2A1.06,1.06,0,0,1,.22.86a1.46,1.46,0,0,1,1-.36l3,0H4.3A1.88,1.88,0,0,1,5,.75a1.37,1.37,0,0,1,.46.56,17.36,17.36,0,0,0,1.08,2,6.23,6.23,0,0,0,1.54,2,6.48,6.48,0,0,0,.14-2.19,2.09,2.09,0,0,0-.19-1,1,1,0,0,0-.57-0.22L6.93,1.39A1.25,1.25,0,0,1,7.78.29,6,6,0,0,1,10.08,0H10.6a6.49,6.49,0,0,1,1.58.15c1.25,0.27,1.2,1.32,1.15,2.52,0,0.35,0,.76,0,1.23,0,0.12,0,.24,0,0.36a3.13,3.13,0,0,0,.07,1,7,7,0,0,0,1.52-1.89A15.62,15.62,0,0,0,16,1.24h0A1.16,1.16,0,0,1,17.17.52l3.13,0h0.28a1.28,1.28,0,0,1,1.34.65c0.2,0.49.12,1.26-1.73,3.51l-0.72.86a5.61,5.61,0,0,0-.91,1.21,5,5,0,0,0,.92.87,10.77,10.77,0,0,1,2.22,2.34,1.25,1.25,0,0,1,.19,1.28,1.65,1.65,0,0,1-1.38.75l-2.78,0H17.55M13.66,8.31A3,3,0,0,1,15.5,9.55a6.55,6.55,0,0,0,1.1,1,1.77,1.77,0,0,0,1,.31H17.7l2.79,0a1.25,1.25,0,0,0,.39-0.1l-0.07-.13a9.81,9.81,0,0,0-2-2.07C18,7.78,17.52,7.4,17.47,6.8s0.36-1.1,1.18-2.06l0.71-.84a8.07,8.07,0,0,0,1.51-2.25,3.82,3.82,0,0,0-.5,0l-3.2,0a0.37,0.37,0,0,0-.18,0A15.77,15.77,0,0,1,15.79,4c-1.39,2.15-2,2.44-2.5,2.44a0.81,0.81,0,0,1-.42-0.11,2.17,2.17,0,0,1-.69-2.1c0-.11,0-0.23,0-0.33,0-.49,0-0.92,0-1.29,0.06-1.28,0-1.29-.28-1.35a5.49,5.49,0,0,0-1.36-.12H10.08a9.87,9.87,0,0,0-1.4.07,1.32,1.32,0,0,1,.19.19,3,3,0,0,1,.44,1.67c0.1,1.25,0,2.89-.75,3.28a1,1,0,0,1-.44.1C7.45,6.47,6.77,5.79,5.62,4a17.56,17.56,0,0,1-1.16-2.2L4.4,1.71a0.83,0.83,0,0,0-.24-0.09l-2.93,0H1.18C1.62,2.55,3.69,6.66,6,8.82a7.14,7.14,0,0,0,4.7,2H12a0.84,0.84,0,0,0,.2-0.08s0,0,0-.07c0-.2,0-2,1.16-2.31a1.06,1.06,0,0,1,.29,0" transform="translate(0 0)"/></g></svg>