<svg id="Layer_1" data-name="Layer 1" xmlns="http://www.w3.org/2000/svg" viewBox="0 0 26.95 34.09"><title>icon-htmla</title><path d="M13.62,0L13.47,0,0,1.41V26.07l13.47,8,13.43-8,0,0V1.41ZM25,12.13L13.5,5.33V5.23l-0.09,0-0.09-.06V5.33L1.92,12.12v-9L13.47,1.93,25,3.15v9h0ZM13.41,6.79L24.92,13.5l-4.48,2.64-7.09-4.22v1.42l5.9,3.51-0.86.51-5-3v1.41l3.83,2.27-0.78.52-3-1.79V18.2l1.85,1.09-1.8,1.08L2,13.62ZM1.92,15.13l11.41,6.79,0,1L5.41,18.23v1.42l8,4.79,0,1.08-8-4.74V22.2l8,4.82,0,0,8.14-4.87V17L25,15V25L13.47,31.85,1.92,25V15.13Z"/></svg>