<svg id="Layer_1" data-name="Layer 1" xmlns="http://www.w3.org/2000/svg" viewBox="0 0 100.5 18.09"><defs><style>.cls-1{fill:#111;}</style></defs><title>logo-mobile-header</title><path class="cls-1" d="M1.22,16.58A6.76,6.76,0,0,1,0,12.22V5.88a6.83,6.83,0,0,1,1.21-4.4Q2.43,0,5.36,0t4,1.32A5.5,5.5,0,0,1,10.5,5.08V6.6H6.64V4.84a4.33,4.33,0,0,0-.22-1.56,1,1,0,0,0-1.06-.54,1.09,1.09,0,0,0-1.1.58A3.9,3.9,0,0,0,4,4.91v8.27a3.67,3.67,0,0,0,.28,1.6,1.1,1.1,0,0,0,1.09.55,1,1,0,0,0,1-.55,4.3,4.3,0,0,0,.23-1.6V11.33H10.5v1.52a5.79,5.79,0,0,1-1.17,3.85q-1.17,1.38-4,1.38T1.22,16.58Z"/><path class="cls-1" d="M15.2,0.24h4.5L23,17.83H19.38l-0.6-3.71H16.17l-0.62,3.71H11.82Zm3.22,11.55L17.47,4.93l-0.95,6.86h1.9Z"/><path class="cls-1" d="M25.75,3.13H23.06V0.24h9.33V3.13H29.72v14.7h-4V3.13Z"/><path class="cls-1" d="M39.53,0.24h6.92V2.06H42V7.88h3.59V9.62H42v6.45H46.5v1.76h-7V0.24Z"/><path class="cls-1" d="M48.49,0.24h1.7l5.07,11.68V0.24h2.07V17.83H55.74l-5.14-12v12H48.49V0.24Z"/><path class="cls-1" d="M59.81,0.24h6.92V2.06H62.3V7.88H65.9V9.62H62.3v6.45h4.48v1.76h-7V0.24Z"/><path class="cls-1" d="M68.77,0.24h3.59a6,6,0,0,1,4,1.1,4.49,4.49,0,0,1,1.27,3.57q0,3.39-2.21,4.1l2.54,8.82h-2.4L73.2,9.57H71.26v8.25H68.77V0.24Zm3.44,7.58a3.4,3.4,0,0,0,2.3-.63,3,3,0,0,0,.7-2.28A4.81,4.81,0,0,0,75,3.2a1.64,1.64,0,0,0-.86-0.91A4.17,4.17,0,0,0,72.36,2h-1.1V7.82h0.95Z"/><path class="cls-1" d="M80.81,16.53A7.68,7.68,0,0,1,79.73,12V6.17a11,11,0,0,1,.43-3.35,3.75,3.75,0,0,1,1.48-2A5.09,5.09,0,0,1,84.52.09a4.53,4.53,0,0,1,3.56,1.24,5.78,5.78,0,0,1,1.09,3.89V5.86H86.83V5.32a9.45,9.45,0,0,0-.15-1.94,1.64,1.64,0,0,0-.65-1A2.55,2.55,0,0,0,84.56,2,2.22,2.22,0,0,0,83,2.46a2.17,2.17,0,0,0-.65,1.25,12.08,12.08,0,0,0-.14,2.09v6.51a6.24,6.24,0,0,0,.5,2.9,2,2,0,0,0,1.91.88,2,2,0,0,0,1.91-1,6.76,6.76,0,0,0,.52-3.06V10.86H84.78V9.12H89.3v8.71H87.74l-0.24-2A3.14,3.14,0,0,1,84.32,18,4,4,0,0,1,80.81,16.53Z"/><path class="cls-1" d="M94.28,11.62L90.42,0.24h2.32l2.73,8.49,2.69-8.49h2.34L96.66,11.62v6.21H94.28V11.62Z"/></svg>