<svg id="Слой_1" data-name="Слой 1" xmlns="http://www.w3.org/2000/svg" xmlns:xlink="http://www.w3.org/1999/xlink" viewBox="0 0 201.99 59.48"><defs><style>.cls-1{fill:none;}.cls-2{clip-path:url(#clip-path);}.cls-3{fill:#fdc305;}.cls-4{fill:#f06351;}.cls-5{fill:#e55645;}.cls-6{fill:#111;}.cls-7{fill:#444;}</style><clipPath id="clip-path" transform="translate(0 0)"><rect class="cls-1" width="201.99" height="59.48"/></clipPath></defs><title>logo-desktop</title><g class="cls-2"><path class="cls-3" d="M59.88,24A25.61,25.61,0,1,0,32.51,59.2c-0.58-2.09-1.16-4.4-1.69-6.85a32.77,32.77,0,0,0,4.77,2.56h0s0.12,2.16.28,4.57A25.44,25.44,0,0,0,41.19,59a2,2,0,0,1,0-.76c0.29-1.86,1.09-5.24,1.25-7.41a15.25,15.25,0,0,0,2.9-3.71v0l-0.06.43c-0.55,4.26-1.7,8.81-2.4,10.07a5.78,5.78,0,0,1-.83,1.15A25.63,25.63,0,0,0,59.88,24m-1.48,3.79c-0.43.43-1.35,0.72-1.49-.58S56.72,25,56.72,25s-1.93-3.42-2.65-3.47-5.83,3.47-7.18,5c-1.17,1.29-1.4,1.2-1.4,3.47,0,1.71.22,8.17,0.1,13.11l-8.15,2.17A64.84,64.84,0,0,1,29.64,47l-1-5.83H28.5L25.93,28s-3.81-1.45-5.2-1.83a3.74,3.74,0,0,0-4,.63,5.08,5.08,0,0,0-1.74,3.85,6.88,6.88,0,0,1,.48,1.45c0,0.48-1.2.43-2,.43s-0.92-1.45-.29-3.13A23.64,23.64,0,0,1,15,25.66a11.91,11.91,0,0,1,2.07-2.89s0.14-.34,1.25-0.24S25.64,23,25.64,23l0.05-2.28a144.29,144.29,0,0,1,20.24-1.34q0,0.91-.06,1.83a22.64,22.64,0,0,1,8.14-2,0.91,0.91,0,0,1,.77.39c0.34,0.43,2.41,3,2.65,3.37a28.43,28.43,0,0,1,1.83,3,6.27,6.27,0,0,1-.87,1.78" transform="translate(0 0)"/><path class="cls-4" d="M56.46,21.67c0.47,0.6.89,1.13,1,1.29a27.89,27.89,0,0,1,1.83,3,6.25,6.25,0,0,1-.87,1.78c-0.43.43-1.35,0.72-1.49-.58S56.72,25,56.72,25s-1.93-3.42-2.65-3.47-5.83,3.47-7.18,5c-1.17,1.29-1.4,1.2-1.4,3.47,0,1.5.17,6.65,0.13,11.23,1.81,0.21,4.47.71,5.27,1.88,0,0-.29-7.18,7.81-3.42,0,0,.29-9.78,11.47-7.28A43.78,43.78,0,0,0,56.46,21.67" transform="translate(0 0)"/><path class="cls-4" d="M45.93,19.35A90.49,90.49,0,0,0,44.53,2.82s-0.15-1.3-.87-0.24a14.21,14.21,0,0,0-1.2,4,70.66,70.66,0,0,0-12.82.34c-0.82-2.75-2.22-4-2.89-3.66S26,6.53,26,6.53L25.69,20.69a144.29,144.29,0,0,1,20.24-1.34" transform="translate(0 0)"/><path class="cls-5" d="M45.35,47.12c0.13-1.06.2-2.48,0.24-4.06l-8.15,2.17A65.06,65.06,0,0,1,29.64,47l1.11,5,0.07,0.33a32.67,32.67,0,0,0,4.77,2.55,42.61,42.61,0,0,0,6.87-4.13v0.06a15.27,15.27,0,0,0,2.9-3.71" transform="translate(0 0)"/><path d="M32,16.22c0-.09,1,0.68,1.41.92a1.08,1.08,0,0,1,.61.59,0.56,0.56,0,0,1-.63.34,1.48,1.48,0,0,1-1-.27l0.94,0h0.29A8.28,8.28,0,0,1,32,16.22" transform="translate(0 0)"/><path d="M39.5,16.33s-1.05,1.28-1.09,1.34S38.24,18,38.6,18a8,8,0,0,0,1.22-.28c0.11-.06.07-0.2-0.12-0.18s-0.68,0-1,.11l0.84-1.26s0-.12-0.06,0" transform="translate(0 0)"/><path d="M36.36,22.44a2.32,2.32,0,0,0,1.09-1c0.28-.66,0-0.92-0.44-1a2.45,2.45,0,0,0-1.74.34,0.57,0.57,0,0,0-.05,1,5,5,0,0,0,1.15.7" transform="translate(0 0)"/><path class="cls-4" d="M35.95,23.7a2,2,0,0,1-.46.6,1.74,1.74,0,0,1-1,.39A2.16,2.16,0,0,1,33,24.24a2.09,2.09,0,0,1-.53-0.44,1,1,0,0,0-.36-0.25s0.75,4.12,2.58,4.77,2.15-.75,2.21-1.14a5.62,5.62,0,0,0-.82-3.24c0-.3,0-0.1-0.13-0.23" transform="translate(0 0)"/><path d="M34.3,24.84h0a3.47,3.47,0,0,1-2.34-1.42,0.14,0.14,0,1,1,.23-0.17,3.25,3.25,0,0,0,2.11,1.31h0a2.1,2.1,0,0,0,1.63-1l0.14-.19,0.1,0.21a1.45,1.45,0,0,0,1,.8,2.17,2.17,0,0,0,1.62-1.28,0.14,0.14,0,0,1,.24.16c-0.64,1-1.27,1.45-1.88,1.41A1.55,1.55,0,0,1,36,23.9a2.26,2.26,0,0,1-1.73.94" transform="translate(0 0)"/><path class="cls-3" d="M32.8,36a3.75,3.75,0,1,1,4.91,2,3.75,3.75,0,0,1-4.91-2" transform="translate(0 0)"/><path class="cls-6" d="M41.23,31.5L38.1,32.81l1.15-5.64-7.5,9.76,3.13-1.31-1.15,5.64Zm-7.39,3.82L38,29.92l-0.81,4,2-.82L35,38.52l0.81-4Z" transform="translate(0 0)"/><path class="cls-6" d="M31.4,33.18a1.12,1.12,0,1,1,1.47.6,1.12,1.12,0,0,1-1.47-.6" transform="translate(0 0)"/><path class="cls-6" d="M38.23,37.44a0.79,0.79,0,1,1,1,.43,0.79,0.79,0,0,1-1-.43" transform="translate(0 0)"/><path class="cls-6" d="M39.6,35.53a0.35,0.35,0,1,1,.45.19,0.35,0.35,0,0,1-.45-0.19" transform="translate(0 0)"/><path class="cls-4" d="M45.88,21.16a58.41,58.41,0,0,0-5.08,5.21,31.77,31.77,0,0,1-5.31,4.89,6.73,6.73,0,0,0-1.63-1.51s-3.14-2.15-5.2-3.84a33.15,33.15,0,0,1-3.14-3l-2-.11a22.64,22.64,0,0,0,12,8.84c0.87-.14,3.29-1.87,5.1-3.27a57.8,57.8,0,0,0,6-5.92,6.1,6.1,0,0,0,1.14-2c-1.11.38-1.84,0.71-1.84,0.71" transform="translate(0 0)"/><polygon class="cls-3" points="65.22 3.5 56.76 12.94 55.54 10.94 63.69 0 65.22 3.5"/><polygon class="cls-3" points="62.65 17.26 68.19 13.15 67.41 9.41 62 14.22 62.65 17.26"/><polygon class="cls-3" points="59.92 49.37 66.05 52.55 69.06 50.21 62.37 47.46 59.92 49.37"/><polygon class="cls-3" points="1.95 5.97 5.02 2.61 14.31 11.61 13.09 13.89 1.95 5.97"/><polygon class="cls-3" points="7.38 16.28 2.68 13.15 0.28 17.01 5.43 19.42 7.38 16.28"/><polygon class="cls-3" points="13.91 52.55 9.36 55.9 12.16 59.48 16.18 55.46 13.91 52.55"/><path class="cls-4" d="M25.93,28s-3.81-1.45-5.2-1.83a3.74,3.74,0,0,0-4,.63,5.08,5.08,0,0,0-1.73,3.85,6.94,6.94,0,0,1,.48,1.45c0,0.48-1.2.43-2,.43s-0.92-1.45-.29-3.13A23.7,23.7,0,0,1,15,25.66c-5.45,2.84-15,9.4-15,9.4a45.91,45.91,0,0,1,8.19.24c5.25,0.53,5,4.67,5,4.67a38.11,38.11,0,0,1,5.64-1.11A2.17,2.17,0,0,1,21.06,41l0.53,3.85a18.84,18.84,0,0,1,2.65-2.36,6.07,6.07,0,0,1,4.39-1.3h0Z" transform="translate(0 0)"/><path class="cls-6" d="M85.66,42a8.32,8.32,0,0,1-1.4-5.19V29.34a8.41,8.41,0,0,1,1.39-5.24q1.39-1.77,4.75-1.77,3.21,0,4.54,1.57a6.75,6.75,0,0,1,1.33,4.49v1.76H92.13V28.2A10,10,0,0,0,92,26.7a1.67,1.67,0,0,0-.47-0.94,1.57,1.57,0,0,0-1.15-.37,1.47,1.47,0,0,0-1.5.75,5.6,5.6,0,0,0-.34,2.2v9.53a4.82,4.82,0,0,0,.39,2.2,1.49,1.49,0,0,0,1.45.73,1.35,1.35,0,0,0,1.4-.74,5.93,5.93,0,0,0,.31-2.19v-2h4.14v1.74A7.24,7.24,0,0,1,95,42.19q-1.32,1.65-4.56,1.64T85.66,42" transform="translate(0 0)"/><path class="cls-6" d="M101.91,22.58h4.74l4,21h-3.94L106,38.94h-3.31l-0.8,4.61h-4Zm3.65,13.72-1.27-8.44-1.24,8.44h2.51Z" transform="translate(0 0)"/><polygon class="cls-6" points="113.72 25.74 110.48 25.74 110.48 22.58 121.2 22.58 121.2 25.74 118.01 25.74 118.01 43.55 113.72 43.55 113.72 25.74"/><polygon class="cls-7" points="129.61 22.58 137.74 22.58 137.74 24.76 132.54 24.76 132.54 31.69 136.76 31.69 136.76 33.76 132.54 33.76 132.54 41.45 137.79 41.45 137.79 43.55 129.61 43.55 129.61 22.58"/><polygon class="cls-7" points="140.15 22.58 142.14 22.58 148.09 36.51 148.09 22.58 150.53 22.58 150.53 43.55 148.66 43.55 142.63 29.23 142.63 43.55 140.15 43.55 140.15 22.58"/><polygon class="cls-7" points="153.81 22.58 161.94 22.58 161.94 24.76 156.74 24.76 156.74 31.69 160.96 31.69 160.96 33.76 156.74 33.76 156.74 41.45 162 41.45 162 43.55 153.81 43.55 153.81 22.58"/><path class="cls-7" d="M164.35,22.58h4.22a7,7,0,0,1,4.67,1.31,5.4,5.4,0,0,1,1.49,4.26q0,4-2.59,4.89l3,10.51H172.3l-2.74-9.84h-2.28v9.84h-2.92v-21Zm4,9a3.94,3.94,0,0,0,2.7-.75,3.62,3.62,0,0,0,.82-2.72,5.8,5.8,0,0,0-.29-2,2,2,0,0,0-1-1.09,4.82,4.82,0,0,0-2-.35h-1.3v6.94h1.11Z" transform="translate(0 0)"/><path class="cls-7" d="M178.67,42a9.28,9.28,0,0,1-1.27-5.34v-7a13.31,13.31,0,0,1,.51-4,4.47,4.47,0,0,1,1.74-2.41A5.9,5.9,0,0,1,183,22.4a5.27,5.27,0,0,1,4.18,1.47,7,7,0,0,1,1.28,4.63v0.78h-2.75V28.64a11.49,11.49,0,0,0-.18-2.32,2,2,0,0,0-.76-1.23,3,3,0,0,0-1.72-.41,2.3,2.3,0,0,0-2.57,2,14.5,14.5,0,0,0-.17,2.49V37a7.56,7.56,0,0,0,.58,3.46,2.34,2.34,0,0,0,2.24,1,2.31,2.31,0,0,0,2.24-1.14,8.17,8.17,0,0,0,.61-3.65V35.24h-2.67V33.17h5.31V43.55H186.8l-0.29-2.41a3.69,3.69,0,0,1-3.73,2.67,4.69,4.69,0,0,1-4.12-1.8" transform="translate(0 0)"/><polygon class="cls-7" points="194.69 36.15 190.16 22.58 192.88 22.58 196.09 32.7 199.25 22.58 201.99 22.58 197.49 36.15 197.49 43.55 194.69 43.55 194.69 36.15"/></g></svg>