<svg id="Слой_1" data-name="Слой 1" xmlns="http://www.w3.org/2000/svg" xmlns:xlink="http://www.w3.org/1999/xlink" viewBox="0 0 172.26 57.07"><defs><style>.cls-1{fill:none;}.cls-2{clip-path:url(#clip-path);}.cls-3{fill:#fdc305;}.cls-4{fill:#f06351;}.cls-5{fill:#e55645;}.cls-6{fill:#111;}.cls-7{fill:#444;}</style><clipPath id="clip-path" transform="translate(0 0)"><rect class="cls-1" width="172.26" height="57.07"/></clipPath></defs><title>logo-tablet</title><g class="cls-2"><path class="cls-3" d="M59.62,21.74A25.5,25.5,0,1,0,32.37,56.79c-0.58-2.08-1.16-4.38-1.68-6.83a32.52,32.52,0,0,0,4.75,2.54h0s0.12,2.15.28,4.55A25.35,25.35,0,0,0,41,56.59a2,2,0,0,1,0-.76c0.28-1.85,1.09-5.21,1.24-7.37a15.21,15.21,0,0,0,2.89-3.7v0l-0.05.43c-0.55,4.25-1.7,8.78-2.39,10a5.76,5.76,0,0,1-.83,1.15A25.52,25.52,0,0,0,59.62,21.74m-1.47,3.77c-0.43.43-1.34,0.72-1.49-.58s-0.19-2.21-.19-2.21-1.92-3.41-2.64-3.45S48,22.72,46.68,24.21c-1.16,1.28-1.39,1.2-1.39,3.45,0,1.71.22,8.13,0.1,13.05l-8.11,2.16a64.41,64.41,0,0,1-7.77,1.78l-1-5.81H28.37L25.81,25.7S22,24.26,20.63,23.88a3.72,3.72,0,0,0-4,.62,5.06,5.06,0,0,0-1.73,3.84,6.86,6.86,0,0,1,.48,1.44c0,0.48-1.2.43-2,.43s-0.91-1.44-.29-3.12A23.49,23.49,0,0,1,15,23.4,11.87,11.87,0,0,1,17,20.52s0.14-.34,1.25-0.24,7.25,0.43,7.25.43l0.05-2.27a143.65,143.65,0,0,1,20.16-1.33c0,0.6,0,1.21-.06,1.82a22.56,22.56,0,0,1,8.11-2,0.91,0.91,0,0,1,.77.38c0.34,0.43,2.4,3,2.64,3.36a27.82,27.82,0,0,1,1.82,3,6.23,6.23,0,0,1-.86,1.77" transform="translate(0 0)"/><path class="cls-4" d="M56.21,19.43c0.47,0.6.88,1.12,1,1.28a27.79,27.79,0,0,1,1.82,3,6.24,6.24,0,0,1-.86,1.77c-0.43.43-1.34,0.72-1.49-.58s-0.19-2.21-.19-2.21-1.92-3.41-2.64-3.45S48,22.73,46.69,24.21c-1.16,1.28-1.39,1.2-1.39,3.45,0,1.5.17,6.62,0.13,11.18,1.8,0.21,4.45.71,5.24,1.87,0,0-.29-7.15,7.77-3.41,0,0,.29-9.74,11.42-7.25A43.57,43.57,0,0,0,56.21,19.43" transform="translate(0 0)"/><path class="cls-4" d="M45.74,17.11A90.14,90.14,0,0,0,44.33.65S44.19-.64,43.47.41a14.19,14.19,0,0,0-1.2,3.94,70.36,70.36,0,0,0-12.76.33C28.69,1.95,27.3.75,26.63,1s-0.72,3.31-.72,3.31l-0.33,14.1a143.65,143.65,0,0,1,20.16-1.33" transform="translate(0 0)"/><path class="cls-5" d="M45.15,44.76c0.13-1.06.2-2.47,0.24-4l-8.11,2.16a64.47,64.47,0,0,1-7.77,1.77l1.1,5L30.68,50a32.62,32.62,0,0,0,4.75,2.54,42.39,42.39,0,0,0,6.84-4.12v0.06a15.21,15.21,0,0,0,2.89-3.7" transform="translate(0 0)"/><path d="M31.86,14c0-.09,1,0.68,1.4.92a1.07,1.07,0,0,1,.61.59,0.56,0.56,0,0,1-.62.34,1.47,1.47,0,0,1-1-.26l0.94,0h0.29A8.23,8.23,0,0,1,31.86,14" transform="translate(0 0)"/><path d="M39.33,14.11s-1,1.27-1.09,1.33-0.17.34,0.19,0.29a8,8,0,0,0,1.22-.28c0.11-.06.07-0.2-0.12-0.17s-0.68,0-1,.11l0.84-1.26s0-.12-0.06,0" transform="translate(0 0)"/><path d="M36.2,20.19a2.31,2.31,0,0,0,1.09-1c0.28-.66,0-0.91-0.44-1a2.44,2.44,0,0,0-1.74.34,0.57,0.57,0,0,0-.05,1,5,5,0,0,0,1.14.69" transform="translate(0 0)"/><path class="cls-4" d="M35.79,21.44a2,2,0,0,1-.46.59,1.73,1.73,0,0,1-1,.39A2.15,2.15,0,0,1,32.87,22a2,2,0,0,1-.53-0.44A1,1,0,0,0,32,21.29s0.75,4.1,2.56,4.74,2.14-.75,2.2-1.13a5.59,5.59,0,0,0-.82-3.22c0-.3,0-0.1-0.13-0.23" transform="translate(0 0)"/><path d="M34.15,22.58h0a3.46,3.46,0,0,1-2.33-1.42A0.14,0.14,0,1,1,32,21a3.23,3.23,0,0,0,2.1,1.3h0a2.09,2.09,0,0,0,1.63-1l0.14-.19L36,21.32a1.44,1.44,0,0,0,1,.79,2.16,2.16,0,0,0,1.62-1.28,0.14,0.14,0,1,1,.24.16c-0.63,1-1.26,1.45-1.88,1.41a1.55,1.55,0,0,1-1.12-.76,2.25,2.25,0,0,1-1.72.94" transform="translate(0 0)"/><path class="cls-6" d="M41.05,29.21l-3.12,1.3,1.14-5.61-7.47,9.72,3.12-1.3-1.15,5.61ZM33.7,33l4.11-5.39-0.8,4,2-.82-4.11,5.38,0.8-4Z" transform="translate(0 0)"/><path class="cls-4" d="M45.68,18.92a58.14,58.14,0,0,0-5.06,5.19A31.65,31.65,0,0,1,35.33,29a6.7,6.7,0,0,0-1.62-1.51s-3.13-2.14-5.18-3.82a33,33,0,0,1-3.12-3l-2-.11a22.54,22.54,0,0,0,12,8.8c0.86-.14,3.28-1.86,5.07-3.26a57.49,57.49,0,0,0,5.94-5.89,6.08,6.08,0,0,0,1.13-2c-1.11.38-1.83,0.71-1.83,0.71" transform="translate(0 0)"/><path class="cls-4" d="M25.81,25.7S22,24.26,20.63,23.88a3.72,3.72,0,0,0-4,.62,5.06,5.06,0,0,0-1.73,3.84,6.92,6.92,0,0,1,.48,1.44c0,0.48-1.2.43-2,.43s-0.91-1.44-.29-3.12A23.53,23.53,0,0,1,15,23.4C9.55,26.23,0,32.75,0,32.75A45.8,45.8,0,0,1,8.16,33c5.23,0.53,4.94,4.65,4.94,4.65a38,38,0,0,1,5.61-1.1A2.16,2.16,0,0,1,21,38.65l0.53,3.84a18.8,18.8,0,0,1,2.64-2.35,6,6,0,0,1,4.37-1.3Z" transform="translate(0 0)"/><path class="cls-6" d="M89.56,37.12a5.91,5.91,0,0,1-1-3.69V28.09a6,6,0,0,1,1-3.73,5.2,5.2,0,0,1,6.61-.15,4.8,4.8,0,0,1,.95,3.19v1.25H94.16V27.28a7.22,7.22,0,0,0-.06-1.07,1.2,1.2,0,0,0-.33-0.67,1.12,1.12,0,0,0-.82-0.27,1,1,0,0,0-1.07.53,4,4,0,0,0-.24,1.57v6.77a3.43,3.43,0,0,0,.28,1.56,1.06,1.06,0,0,0,1,.52,1,1,0,0,0,1-.53,4.2,4.2,0,0,0,.22-1.55V32.69H97.1v1.23a5.16,5.16,0,0,1-.94,3.3,3.94,3.94,0,0,1-3.24,1.17,4,4,0,0,1-3.37-1.28" transform="translate(0 0)"/><path class="cls-6" d="M101.12,23.29h3.37l2.87,14.91h-2.8L104,34.92h-2.36l-0.57,3.28H98.23Zm2.6,9.75-0.9-6-0.88,6h1.79Z" transform="translate(0 0)"/><polygon class="cls-6" points="109.51 25.54 107.21 25.54 107.21 23.29 114.83 23.29 114.83 25.54 112.56 25.54 112.56 38.2 109.51 38.2 109.51 25.54"/><polygon class="cls-7" points="120.81 23.29 126.58 23.29 126.58 24.84 122.89 24.84 122.89 29.77 125.89 29.77 125.89 31.24 122.89 31.24 122.89 36.71 126.62 36.71 126.62 38.2 120.81 38.2 120.81 23.29"/><polygon class="cls-7" points="128.3 23.29 129.72 23.29 133.95 33.19 133.95 23.29 135.68 23.29 135.68 38.2 134.35 38.2 130.06 28.02 130.06 38.2 128.3 38.2 128.3 23.29"/><polygon class="cls-7" points="138.01 23.29 143.79 23.29 143.79 24.84 140.09 24.84 140.09 29.77 143.09 29.77 143.09 31.24 140.09 31.24 140.09 36.71 143.83 36.71 143.83 38.2 138.01 38.2 138.01 23.29"/><path class="cls-7" d="M145.51,23.29h3a5,5,0,0,1,3.32.93,3.84,3.84,0,0,1,1.06,3q0,2.87-1.84,3.48l2.12,7.47h-2l-2-7h-1.62v7h-2.08V23.29Zm2.87,6.42a2.8,2.8,0,0,0,1.92-.53,2.57,2.57,0,0,0,.58-1.93,4.13,4.13,0,0,0-.2-1.44A1.39,1.39,0,0,0,150,25a3.44,3.44,0,0,0-1.45-.25h-0.92v4.93h0.79Z" transform="translate(0 0)"/><path class="cls-7" d="M155.68,37.1a6.6,6.6,0,0,1-.9-3.8v-5a9.45,9.45,0,0,1,.36-2.84,3.18,3.18,0,0,1,1.23-1.71,4.2,4.2,0,0,1,2.4-.6,3.75,3.75,0,0,1,3,1,5,5,0,0,1,.91,3.29v0.55h-2V27.6a8.13,8.13,0,0,0-.13-1.65,1.39,1.39,0,0,0-.54-0.87,2.11,2.11,0,0,0-1.22-.3A1.63,1.63,0,0,0,157,26.24a10.24,10.24,0,0,0-.12,1.77v5.52a5.36,5.36,0,0,0,.41,2.46,1.66,1.66,0,0,0,1.59.75,1.64,1.64,0,0,0,1.59-.81,5.81,5.81,0,0,0,.43-2.59v-1H159V30.82h3.77V38.2h-1.31l-0.2-1.71a2.62,2.62,0,0,1-2.65,1.9,3.33,3.33,0,0,1-2.93-1.28" transform="translate(0 0)"/><polygon class="cls-7" points="167.07 32.93 163.85 23.29 165.78 23.29 168.07 30.49 170.31 23.29 172.26 23.29 169.06 32.93 169.06 38.2 167.07 38.2 167.07 32.93"/></g></svg>