<svg id="Слой_1" data-name="Слой 1" xmlns="http://www.w3.org/2000/svg" xmlns:xlink="http://www.w3.org/1999/xlink" viewBox="0 0 33.32 37.61"><defs><style>.cls-1{fill:none;}.cls-2{clip-path:url(#clip-path);}.cls-3{fill:#fdc305;}.cls-4{fill:#f06351;}</style><clipPath id="clip-path" transform="translate(0 0)"><rect class="cls-1" width="33.32" height="37.61"/></clipPath></defs><title>logo-mobile</title><g class="cls-2"><path class="cls-3" d="M6.07,20.72l0.05-2.27a143.63,143.63,0,0,1,20.16-1.33q0,0.91-.06,1.82a25.46,25.46,0,0,1,6-1.81A16.67,16.67,0,0,0,.19,20.38c2.17,0.14,5.88.34,5.88,0.34" transform="translate(0 0)"/><path class="cls-3" d="M27.24,24.23c-1.16,1.28-1.39,1.2-1.39,3.46,0,0.91,0,4.9,0,9.17A16.68,16.68,0,0,0,33,19.9a33.65,33.65,0,0,0-5.8,4.33" transform="translate(0 0)"/><path class="cls-3" d="M6.36,25.72s-3.79-1.44-5.18-1.82A10.62,10.62,0,0,0,0,23.61a16.66,16.66,0,0,0,8.68,14Z" transform="translate(0 0)"/><path class="cls-4" d="M26.29,17.12A90.16,90.16,0,0,0,24.89.65S24.75-.64,24,0.41a14.18,14.18,0,0,0-1.2,3.94,70.3,70.3,0,0,0-12.77.33C9.24,2,7.85.75,7.18,1S6.46,4.35,6.46,4.35L6.13,18.45a143.62,143.62,0,0,1,20.17-1.33" transform="translate(0 0)"/><path d="M12.41,14c0-.09,1,0.68,1.41.92a1.07,1.07,0,0,1,.61.59,0.56,0.56,0,0,1-.62.34,1.48,1.48,0,0,1-1-.26l0.94,0h0.29A8.24,8.24,0,0,1,12.41,14" transform="translate(0 0)"/><path d="M19.89,14.11s-1,1.27-1.09,1.33-0.17.34,0.18,0.29a7.94,7.94,0,0,0,1.22-.28c0.11-.06.07-0.2-0.12-0.18s-0.68,0-1,.11l0.84-1.26s0-.12-0.06,0" transform="translate(0 0)"/><path d="M16.75,20.2a2.3,2.3,0,0,0,1.09-1c0.28-.66,0-0.91-0.44-1a2.44,2.44,0,0,0-1.74.34,0.57,0.57,0,0,0-.05,1,5,5,0,0,0,1.14.69" transform="translate(0 0)"/><path class="cls-4" d="M16.35,21.45a2,2,0,0,1-.46.59,1.72,1.72,0,0,1-1,.39A2.16,2.16,0,0,1,13.42,22a2.11,2.11,0,0,1-.53-0.44,0.94,0.94,0,0,0-.36-0.25s0.75,4.1,2.57,4.75,2.14-.75,2.2-1.13a5.6,5.6,0,0,0-.82-3.22c0-.3,0-0.1-0.13-0.23" transform="translate(0 0)"/><path d="M14.71,22.59h0a3.46,3.46,0,0,1-2.33-1.42A0.14,0.14,0,1,1,12.59,21a3.23,3.23,0,0,0,2.1,1.3h0a2.08,2.08,0,0,0,1.63-1l0.14-.19,0.1,0.21a1.45,1.45,0,0,0,1,.8,2.17,2.17,0,0,0,1.62-1.28,0.14,0.14,0,1,1,.24.16c-0.63,1-1.26,1.45-1.88,1.41a1.54,1.54,0,0,1-1.12-.76,2.25,2.25,0,0,1-1.72.94" transform="translate(0 0)"/><path class="cls-4" d="M26.24,18.92a58.19,58.19,0,0,0-5.06,5.19A31.62,31.62,0,0,1,15.88,29a6.7,6.7,0,0,0-1.62-1.51s-3.13-2.14-5.18-3.82a33.13,33.13,0,0,1-3.13-3l-2-.11a22.55,22.55,0,0,0,12,8.8c0.86-.14,3.28-1.86,5.08-3.26a57.53,57.53,0,0,0,5.94-5.89,6.07,6.07,0,0,0,1.14-2c-1.11.38-1.83,0.71-1.83,0.71" transform="translate(0 0)"/></g></svg>